<svg width="146" height="105" viewBox="0 0 146 105" fill="none" xmlns="http://www.w3.org/2000/svg">
<path d="M121.69 27.75C120.31 25.64 118.38 24.03 115.87 22.92C113.37 21.81 110.43 21.26 107.07 21.26H102.32L94.26 21.3V63.78H102.32V49.58H107.07C110.43 49.58 113.37 49.02 115.87 47.89C118.37 46.76 120.31 45.15 121.69 43.06C123.07 40.97 123.75 38.42 123.75 35.43C123.76 32.42 123.07 29.87 121.69 27.75ZM113.04 40.87C111.36 41.96 109.22 42.5 106.64 42.5H102.32V28.34H106.64C109.23 28.34 111.36 28.88 113.04 29.97C114.72 31.06 115.56 32.87 115.56 35.42C115.57 37.97 114.73 39.78 113.04 40.87Z" fill="black"/>
<path d="M80.99 55.34C79.27 56.47 77.25 57.03 74.92 57.03C72.55 57.03 70.46 56.44 68.66 55.25C66.86 54.06 65.46 52.38 64.46 50.19C63.46 48 62.96 45.46 62.96 42.55C62.96 39.61 63.45 37.05 64.43 34.88C65.41 32.71 66.78 31.03 68.54 29.82C70.3 28.61 72.3 28.01 74.55 28.01C76.88 28.01 78.91 28.63 80.65 29.88C81.82 30.72 82.94 31.89 84.02 33.32L88.5 27.11C86.96 25.35 85.23 23.91 83.32 22.8C80.7 21.29 77.68 20.53 74.24 20.53C70.31 20.53 66.89 21.46 63.97 23.32C61.05 25.18 58.78 27.77 57.16 31.08C55.54 34.39 54.74 38.24 54.74 42.61C54.74 46.99 55.55 50.82 57.16 54.11C58.78 57.4 61.05 59.96 63.97 61.78C66.89 63.6 70.32 64.51 74.24 64.51C77.68 64.51 80.75 63.75 83.47 62.24C85.34 61.2 87 59.89 88.47 58.34L84.18 52.22C83.15 53.56 82.09 54.62 80.99 55.34Z" fill="black"/>
<path d="M29.5199 63.78V50.59H35.2299L45.1199 63.78H55.2299L43.2799 47.87C47.0099 45.2 49.45 40.85 49.45 35.92C49.45 27.83 42.8699 21.26 34.7799 21.26H21.4299V63.78H29.5199ZM29.5199 29.33H34.7899C38.4199 29.33 41.39 32.28 41.39 35.92C41.39 39.56 38.4199 42.51 34.7899 42.51H29.5199V29.33Z" fill="black"/>
<path d="M31.51 83.62L15.46 70.16H128.01L31.51 83.62Z" fill="black"/>
</svg>
