<svg xmlns="http://www.w3.org/2000/svg" width='40' height='30' viewBox="0 0 22.51 12.62"><defs><style>.cls-1{fill:none;}.cls-2{fill:#fffdfe;}</style></defs><title>Asset 1</title><g id="Layer_2" data-name="Layer 2"><g id="Guides"><rect class="cls-1" x="1.2" y="0.15" width="20.46" height="12.47"/><path class="cls-2" d="M21.25,1.45a2.6,2.6,0,0,0-1.17-1A4.35,4.35,0,0,0,18.32.15H15.76v8.5h1.61V5.81h.95a4.19,4.19,0,0,0,1.76-.34,2.72,2.72,0,0,0,1.17-1A2.77,2.77,0,0,0,21.66,3,2.77,2.77,0,0,0,21.25,1.45ZM19.52,4.07a2.32,2.32,0,0,1-1.28.32h-.87V1.56h.87a2.32,2.32,0,0,1,1.28.33A1.21,1.21,0,0,1,20,3,1.21,1.21,0,0,1,19.52,4.07Z"/><path class="cls-2" d="M13.11,7a2.15,2.15,0,0,1-1.22.34,2.21,2.21,0,0,1-1.25-.36,2.28,2.28,0,0,1-.84-1A3.63,3.63,0,0,1,9.5,4.4a3.8,3.8,0,0,1,.29-1.53,2.43,2.43,0,0,1,.82-1,2.13,2.13,0,0,1,1.21-.36A2,2,0,0,1,13,1.87a3.16,3.16,0,0,1,.67.69l.9-1.24a4.26,4.26,0,0,0-1-.87A3.57,3.57,0,0,0,11.76,0,3.76,3.76,0,0,0,9.7.56,3.74,3.74,0,0,0,8.34,2.11a5.24,5.24,0,0,0-.49,2.31,5.22,5.22,0,0,0,.49,2.3A3.62,3.62,0,0,0,9.7,8.25a3.84,3.84,0,0,0,2.06.55,3.64,3.64,0,0,0,1.84-.46,4,4,0,0,0,1-.78l-.86-1.22A2.45,2.45,0,0,1,13.11,7Z"/><path class="cls-2" d="M2.81,8.65V6H4l2,2.64H8L5.57,5.47A2.93,2.93,0,0,0,3.87.15H1.2v8.5Zm0-6.89H3.87a1.32,1.32,0,0,1,0,2.64H2.81Z"/><polygon class="cls-2" points="3.21 12.62 0 9.93 22.51 9.93 3.21 12.62"/></g></g></svg>